<?xml version="1.0" encoding="UTF-8"?> <svg xmlns="http://www.w3.org/2000/svg" xmlns:xlink="http://www.w3.org/1999/xlink" version="1.1" id="Capa_1" x="0px" y="0px" viewBox="0 0 2090 1252" style="enable-background:new 0 0 2090 1252;" xml:space="preserve"> <style type="text/css"> .st0{fill:#DA291C;} </style> <g> <g> <g> <g> <path class="st0" d="M691.55,836.05v148.41H551V836.05H691.55 M738.39,789.18H504.16v242.16h234.24V789.18L738.39,789.18 L738.39,789.18z"></path> <path class="st0" d="M1487.95,836.05v148.41h-140.54V836.05H1487.95 M1534.8,789.18h-234.24v242.16h234.24V789.18L1534.8,789.18 L1534.8,789.18z"></path> <path class="st0" d="M1206.87,836.05v148.41H832.09V836.05H1206.87 M1253.72,789.18H785.24v242.16h468.47V789.18L1253.72,789.18 L1253.72,789.18z"></path> <path class="st0" d="M691.55,267.53v148.41H551V267.53H691.55 M738.39,220.66H504.16v242.16h234.24V220.66L738.39,220.66 L738.39,220.66z"></path> <path class="st0" d="M972.63,267.53v148.41H832.09V267.53H972.63 M1019.48,220.66H785.24v242.16h234.24V220.66L1019.48,220.66 L1019.48,220.66z"></path> <path class="st0" d="M972.63,546.37v148.41H551V546.37H972.63 M1019.48,499.5H504.16v242.16h515.32V499.5L1019.48,499.5 L1019.48,499.5z"></path> <path class="st0" d="M1066.33,220.66v522.94h468.47V220.66H1066.33L1066.33,220.66z M1343.78,690.45 c0,0,141.95-113.9-26.82-269.52c0,0,29.28,71.01-32.15,144.72c-1-25.39-13.26-49.02-33.44-64.45 c-4.04,44.24-36.19,62.99-37.54,103.18c-0.23,32.43,14.61,63.13,40.17,83.08c0,0-115.13-28.12-97.74-148.77 c16.05-93.75,116.53-146.01,113.84-265.31c0,0,137.91,103.18,174.1,243.86C1473.67,660.69,1343.78,690.45,1343.78,690.45 L1343.78,690.45z"></path> </g> </g> </g> </g> </svg> 