<?xml version="1.0" encoding="UTF-8"?>
<svg xmlns="http://www.w3.org/2000/svg" xmlns:xlink="http://www.w3.org/1999/xlink" width="32px" height="19px" viewBox="0 0 31 19" version="1.1">
<g id="surface1">
<path style=" stroke:none;fill-rule:nonzero;fill:rgb(85.490196%,16.078431%,10.980392%);fill-opacity:1;" d="M 10.257812 12.6875 L 10.257812 14.941406 L 8.171875 14.941406 L 8.171875 12.6875 L 10.257812 12.6875 M 10.953125 11.976562 L 7.476562 11.976562 L 7.476562 15.652344 L 10.953125 15.652344 Z M 10.953125 11.976562 "/>
<path style=" stroke:none;fill-rule:nonzero;fill:rgb(85.490196%,16.078431%,10.980392%);fill-opacity:1;" d="M 22.070312 12.6875 L 22.070312 14.941406 L 19.984375 14.941406 L 19.984375 12.6875 L 22.070312 12.6875 M 22.765625 11.976562 L 19.289062 11.976562 L 19.289062 15.652344 L 22.765625 15.652344 Z M 22.765625 11.976562 "/>
<path style=" stroke:none;fill-rule:nonzero;fill:rgb(85.490196%,16.078431%,10.980392%);fill-opacity:1;" d="M 17.902344 12.6875 L 17.902344 14.941406 L 12.34375 14.941406 L 12.34375 12.6875 L 17.902344 12.6875 M 18.597656 11.976562 L 11.648438 11.976562 L 11.648438 15.652344 L 18.59375 15.652344 L 18.59375 11.976562 Z M 18.597656 11.976562 "/>
<path style=" stroke:none;fill-rule:nonzero;fill:rgb(85.490196%,16.078431%,10.980392%);fill-opacity:1;" d="M 10.257812 4.058594 L 10.257812 6.3125 L 8.171875 6.3125 L 8.171875 4.058594 L 10.257812 4.058594 M 10.953125 3.347656 L 7.476562 3.347656 L 7.476562 7.023438 L 10.953125 7.023438 Z M 10.953125 3.347656 "/>
<path style=" stroke:none;fill-rule:nonzero;fill:rgb(85.490196%,16.078431%,10.980392%);fill-opacity:1;" d="M 14.425781 4.058594 L 14.425781 6.3125 L 12.34375 6.3125 L 12.34375 4.058594 L 14.425781 4.058594 M 15.121094 3.347656 L 11.648438 3.347656 L 11.648438 7.023438 L 15.121094 7.023438 Z M 15.121094 3.347656 "/>
<path style=" stroke:none;fill-rule:nonzero;fill:rgb(85.490196%,16.078431%,10.980392%);fill-opacity:1;" d="M 14.425781 8.292969 L 14.425781 10.542969 L 8.171875 10.542969 L 8.171875 8.292969 L 14.425781 8.292969 M 15.121094 7.582031 L 7.476562 7.582031 L 7.476562 11.253906 L 15.121094 11.253906 Z M 15.121094 7.582031 "/>
<path style=" stroke:none;fill-rule:nonzero;fill:rgb(85.490196%,16.078431%,10.980392%);fill-opacity:1;" d="M 15.816406 3.347656 L 15.816406 11.285156 L 22.765625 11.285156 L 22.765625 3.347656 Z M 19.933594 10.476562 C 19.933594 10.476562 22.039062 8.75 19.535156 6.386719 C 19.535156 6.386719 19.96875 7.464844 19.058594 8.585938 C 19.042969 8.199219 18.859375 7.839844 18.5625 7.605469 C 18.5 8.277344 18.023438 8.5625 18.003906 9.171875 C 18 9.664062 18.222656 10.128906 18.601562 10.433594 C 18.601562 10.433594 16.890625 10.007812 17.148438 8.175781 C 17.386719 6.753906 18.878906 5.960938 18.839844 4.148438 C 18.839844 4.148438 20.882812 5.714844 21.421875 7.847656 C 21.859375 10.027344 19.933594 10.476562 19.933594 10.476562 Z M 19.933594 10.476562 "/>
</g>
</svg>
